<svg width="84" height="47" viewBox="0 0 84 47" fill="none" xmlns="http://www.w3.org/2000/svg">
<path d="M15.1943 0.586914V7.88672H11.4346V0.586914H15.1943ZM14.7305 40.4551V46.998H10.9951V40.4551H14.7305ZM18.417 32.5693C18.417 31.6253 18.2217 30.8034 17.8311 30.1035C17.4567 29.3874 16.8382 28.7445 15.9756 28.1748C15.113 27.5889 13.9574 27.0436 12.5088 26.5391C10.4255 25.8066 8.60254 24.9847 7.04004 24.0732C5.49382 23.1455 4.28939 22.0062 3.42676 20.6553C2.5804 19.2881 2.15723 17.5872 2.15723 15.5527C2.15723 13.5508 2.61296 11.8174 3.52441 10.3525C4.45215 8.8877 5.73796 7.75651 7.38184 6.95898C9.02572 6.16146 10.9463 5.7627 13.1436 5.7627C14.8363 5.7627 16.3581 6.01497 17.709 6.51953C19.0762 7.02409 20.2399 7.76465 21.2002 8.74121C22.1605 9.71777 22.8929 10.9222 23.3975 12.3545C23.9183 13.7705 24.1787 15.3981 24.1787 17.2373H18.3193C18.3193 16.1956 18.1973 15.2679 17.9531 14.4541C17.7253 13.624 17.3835 12.9242 16.9277 12.3545C16.472 11.7686 15.9186 11.321 15.2676 11.0117C14.6328 10.7025 13.9085 10.5479 13.0947 10.5479C11.9391 10.5479 10.987 10.7676 10.2383 11.207C9.48958 11.6302 8.9362 12.2161 8.57812 12.9648C8.23633 13.7135 8.06543 14.568 8.06543 15.5283C8.06543 16.4561 8.24447 17.2699 8.60254 17.9697C8.96061 18.6696 9.57096 19.3044 10.4336 19.874C11.3125 20.4274 12.5169 20.9889 14.0469 21.5586C16.1465 22.3073 17.9613 23.1455 19.4912 24.0732C21.0374 24.9847 22.2256 26.1159 23.0557 27.4668C23.902 28.8014 24.3252 30.486 24.3252 32.5205C24.3252 34.6201 23.8369 36.4023 22.8604 37.8672C21.9001 39.332 20.5492 40.4469 18.8076 41.2119C17.0824 41.9606 15.0723 42.335 12.7773 42.335C11.3288 42.335 9.88835 42.1478 8.45605 41.7734C7.04004 41.3828 5.75423 40.748 4.59863 39.8691C3.44303 38.9902 2.52344 37.8265 1.83984 36.3779C1.15625 34.9131 0.814453 33.1227 0.814453 31.0068H6.72266C6.72266 32.2764 6.89355 33.3343 7.23535 34.1807C7.57715 35.027 8.04102 35.6943 8.62695 36.1826C9.21289 36.6709 9.86393 37.0208 10.5801 37.2324C11.3125 37.444 12.0449 37.5498 12.7773 37.5498C13.998 37.5498 15.0234 37.3464 15.8535 36.9395C16.6999 36.5163 17.3346 35.9303 17.7578 35.1816C18.1973 34.4167 18.417 33.5459 18.417 32.5693ZM54.9639 29.1514V33.8389H29.3291L29.1338 30.2988L44.4658 6.27539H49.1777L44.0752 15.0156L35.2617 29.1514H54.9639ZM50.5205 6.27539V41.8223H44.6367V6.27539H50.5205ZM83.0635 21.0703V26.8809C83.0635 29.6641 82.7868 32.0404 82.2334 34.0098C81.6963 35.9629 80.915 37.5498 79.8896 38.7705C78.8643 39.9912 77.6354 40.8864 76.2031 41.4561C74.7871 42.0257 73.2002 42.3105 71.4424 42.3105C70.0426 42.3105 68.7406 42.1315 67.5361 41.7734C66.348 41.4154 65.2738 40.8538 64.3135 40.0889C63.3532 39.3239 62.5312 38.3392 61.8477 37.1348C61.1803 35.9141 60.6595 34.4574 60.2852 32.7646C59.9271 31.0719 59.748 29.1107 59.748 26.8809V21.0703C59.748 18.2708 60.0247 15.9108 60.5781 13.9902C61.1315 12.0534 61.9209 10.4827 62.9463 9.27832C63.9717 8.05762 65.1924 7.17057 66.6084 6.61719C68.0407 6.0638 69.6357 5.78711 71.3936 5.78711C72.8096 5.78711 74.1117 5.96615 75.2998 6.32422C76.5042 6.66602 77.5785 7.21126 78.5225 7.95996C79.4827 8.70866 80.2965 9.68522 80.9639 10.8896C81.6475 12.0778 82.1683 13.5182 82.5264 15.2109C82.8844 16.8874 83.0635 18.8405 83.0635 21.0703ZM77.1797 27.7109V20.1914C77.1797 18.7754 77.0983 17.5303 76.9355 16.4561C76.7728 15.3656 76.5286 14.446 76.2031 13.6973C75.8939 12.9323 75.5033 12.3138 75.0312 11.8418C74.5592 11.3535 74.0221 11.0036 73.4199 10.792C72.8177 10.5641 72.1423 10.4502 71.3936 10.4502C70.4821 10.4502 69.6683 10.6292 68.9521 10.9873C68.236 11.3291 67.6338 11.8825 67.1455 12.6475C66.6572 13.4124 66.2829 14.4215 66.0225 15.6748C65.7783 16.9118 65.6562 18.4173 65.6562 20.1914V27.7109C65.6562 29.1432 65.7376 30.4046 65.9004 31.4951C66.0632 32.5856 66.3073 33.5215 66.6328 34.3027C66.9583 35.0677 67.349 35.7025 67.8047 36.207C68.2767 36.6953 68.8138 37.0534 69.416 37.2812C70.0345 37.5091 70.71 37.623 71.4424 37.623C72.3701 37.623 73.1921 37.444 73.9082 37.0859C74.6243 36.7279 75.2266 36.1582 75.7148 35.377C76.2031 34.5794 76.5693 33.5459 76.8135 32.2764C77.0576 31.0068 77.1797 29.485 77.1797 27.7109Z" fill="#222F65"/>
</svg>
